<svg xmlns="http://www.w3.org/2000/svg" xmlns:xlink="http://www.w3.org/1999/xlink" viewBox="0 0 226.77 85.04"><defs><linearGradient id="a" x1="30.47" y1="13.75" x2="200.08" y2="13.75" gradientUnits="userSpaceOnUse"><stop offset="0" stop-color="#003a8e"/><stop offset="1" stop-color="#e72410"/></linearGradient><linearGradient id="b" x1="50.4" y1="77.95" x2="176.37" y2="77.95" xlink:href="#a"/></defs><g data-name="レイヤー 3"><path d="m194.53 64.77 8.75-14.59a.7.7 0 0 0 .11-.37V27.92a.71.71 0 0 0-.71-.71h-7.81a.71.71 0 0 0-.68.51l-2.62 8.7h-4.44l8.51-28.34h4.44l-4.19 14a.66.66 0 0 0 .11.62.7.7 0 0 0 .57.29h16.74v4.25h-5a.71.71 0 0 0-.71.71v23.24l-8.15 13.58Zm-53.51 0V10.91h4.26v18.48a.71.71 0 0 0 .26.56l11.78 9.42v5.45l-10.89-8.72a.74.74 0 0 0-.43-.1.8.8 0 0 0-.3.06.71.71 0 0 0-.4.64v28.07Zm-15.84 0-8-16a.71.71 0 0 0-.62-.4.71.71 0 0 0-.62.38l-8.54 16h-4.82L122 28.25a.7.7 0 0 0-.62-1h-17.21V23h25.52L119.2 42.62a.71.71 0 0 0 0 .65l10.75 21.5Zm-45.93 0 5.54-8.94a.7.7 0 0 0 .11-.37V44.22h4.25v12.65l-4.9 7.9Zm-21.4 0 9.36-14.62a.73.73 0 0 0 .11-.38V27.92a.71.71 0 0 0-.71-.71H53.86a.71.71 0 0 0-.71.71v13.47H48.9V23h9.21a.71.71 0 0 0 .71-.71V8.08h4.25v14.17a.71.71 0 0 0 .71.71h7.79v28.26L62.9 64.77Zm-36.24 0 8.76-14.59a.69.69 0 0 0 .1-.37V27.92a.71.71 0 0 0-.71-.71h-16.3V23h16.3a.71.71 0 0 0 .71-.71V8.08h4.25v14.17a.71.71 0 0 0 .71.71h7.8v4.25h-7.8a.71.71 0 0 0-.71.71v23.27l-8.15 13.58Zm70.6-17 2.72-5.34a.75.75 0 0 0 0-.7.71.71 0 0 0-.61-.33H78.66v-4.27h23.74L97 47.76Zm72.2-2.83v-3.7H175a.71.71 0 0 0 .71-.71v-1.84l9.92 6.24ZM77.13 19.42 80 10.91h4.49l-2.84 8.51Zm-7.09 0 2.84-8.51h4.48l-2.84 8.51Z" style="fill:#070025"/><path d="M30.47 8.08h4.25v8.5l-4.25-2.83Zm28.35 5.67 4.25 2.83v-8.5h-4.25ZM141 16.58l4.26 2.84v-8.51H141Zm56.3.68 2.76-9.18h-4.44l-2 6.72Z" style="fill:url(#a)"/><path d="M50.4 73.28H52v3.83h4.42v-3.83h1.62v9.35h-1.59v-4H52v4h-1.6Zm20.75.25h1.54v8.85h-1.54v-1.24a3.73 3.73 0 0 1-3 1.49c-2.24 0-4.31-1.58-4.31-4.69a4.25 4.25 0 0 1 4.31-4.62 3.65 3.65 0 0 1 3 1.47Zm-5.75 4.41c0 1.9 1.07 3.33 2.9 3.33A3 3 0 0 0 71.24 78a3 3 0 0 0-2.94-3.28 2.94 2.94 0 0 0-2.9 3.22Zm26.88-4.64a3 3 0 0 1 2 .54 2.25 2.25 0 0 1-.2 3.61 2.41 2.41 0 0 1 1.17.63 2.34 2.34 0 0 1 .74 1.79A2.61 2.61 0 0 1 95 82a3.83 3.83 0 0 1-2.2.63h-4V73.3Zm-.2 3.79a2 2 0 0 0 1-.27 1.1 1.1 0 0 0 .45-1 1 1 0 0 0-.45-.9 2.24 2.24 0 0 0-1.3-.23h-1.41v2.36Zm.29 4.08a2.58 2.58 0 0 0 1.46-.31 1.37 1.37 0 0 0 .54-1 1.32 1.32 0 0 0-.47-1.06 2.46 2.46 0 0 0-1.46-.33h-2.07v2.73Zm8.2-3.18a4.69 4.69 0 1 1 4.69 4.64 4.55 4.55 0 0 1-4.69-4.63Zm1.58 0a3.12 3.12 0 1 0 3.11-3.31 3.06 3.06 0 0 0-3.11 3.32Zm20.4-2a3.57 3.57 0 0 0-2.77-1.32 3.3 3.3 0 0 0 0 6.59 3.78 3.78 0 0 0 2.85-1.39v1.83a4.68 4.68 0 0 1-2.81.92 4.66 4.66 0 1 1 0-9.31 4.68 4.68 0 0 1 2.75.85Zm10.38-1.22v7.83h-1.61v-7.82h-2.92V73.3h7.45v1.48Zm8.2 3.21a4.69 4.69 0 1 1 4.69 4.64 4.54 4.54 0 0 1-4.69-4.62Zm1.58 0a3.12 3.12 0 1 0 3.11-3.31 3.06 3.06 0 0 0-3.11 3.33Zm14.91-4.69v3.81l3.77-3.81h2l-4 4.15 4.53 5.16h-2.11l-3.63-4.08-.5.47v3.61H156v-9.3Zm18.68 6.82a5.23 5.23 0 0 1-1.09 1.42A4.41 4.41 0 0 1 167.9 78c0-2.64 1.62-4.69 4.29-4.69a3.94 3.94 0 0 1 3.34 1.62 5.82 5.82 0 0 1 .83 3.32h-6.88a2.83 2.83 0 0 0 2.81 3 2.75 2.75 0 0 0 1.82-.64 3.52 3.52 0 0 0 .91-1.22ZM174.79 77a2.65 2.65 0 0 0-2.6-2.31 2.68 2.68 0 0 0-2.6 2.31Z" style="fill:url(#b)"/></g></svg>